<svg width="68" height="29" viewBox="0 0 68 29" fill="none" xmlns="http://www.w3.org/2000/svg">
<path d="M68 28.0421V15.398C68 11.3239 65.4803 9.11406 61.0912 9.11406C59.7094 9.11406 58.2921 9.4595 57.1898 9.97766V0.930176H52.4908V28.0421H57.1898V13.4981C57.9162 13.0815 58.9525 12.8072 59.8822 12.8072C62.0259 12.8072 63.2654 13.8435 63.2654 15.8806V28.0371H68V28.0421ZM49.3158 27.1785L47.8273 23.653C47.1365 24.1712 46.1357 24.4811 45.0638 24.4811C42.8185 24.4811 40.9185 22.5456 40.9185 18.6797C40.9185 14.8087 42.7524 12.8783 45.0638 12.8783C46.1357 12.8783 47.1365 13.1527 47.8273 13.6708L49.3158 10.2875C48.1423 9.49506 46.5878 9.01245 44.378 9.01245C40.0244 9.01245 36.057 12.0859 36.057 18.7153C36.057 25.3447 40.0295 28.4536 44.378 28.4536C46.5878 28.4536 48.1067 27.971 49.3158 27.1785ZM28.5894 16.6426L20.7814 17.7145C20.8525 14.2245 22.5797 12.4313 25.0283 12.4313C27.2076 12.4262 28.5894 13.8435 28.5894 16.6426ZM33.1512 17.4707C33.1512 12.3957 30.2861 9.00738 25.1401 9.00738C19.7146 9.00738 16.5041 13.0155 16.5041 18.7102C16.5041 24.4455 19.7502 28.4485 25.897 28.4485C28.5894 28.4485 31.2157 27.8948 32.7702 27.1023L31.424 23.587C30.1134 24.2779 28.1068 24.7605 26.2424 24.7605C23.5144 24.7605 21.5129 23.4143 21.0964 20.6863L33.0801 19.0607C33.1512 18.507 33.1512 17.9888 33.1512 17.4707ZM15.9859 7.11254V3.03838H0.578247V7.11254H5.86144V28.0421H10.7332V7.11254H15.9859Z" fill="#53BA65"/>
</svg>
